#!OML:ASF F:\VICON\USERDATA\INSTALL\Justin_Nancy\Justin_Nancy.ASF
:FULLY-SPECIFIED
:DEGREES
64
root 10.3756 17.198 -16.3189 -1.04297 -3.50346 1.98448
lowerback 8.16647 -4.24206 -2.27398
upperback -0.172292 -5.69772 3.90729
thorax -4.12402 -2.74897 5.99658
lowerneck -14.7611 -2.13196 -9.50495
upperneck 21.8549 -1.45392 3.40683
head 9.44317 -1.10433 2.5848
rclavicle 1.04064e-013 -3.18055e-014
rhumerus -46.7951 -20.2961 -67.885
rradius 33.3379
rwrist 7.52103
rhand -9.22648 11.9674
rfingers 7.12502
rthumb 16.7284 -17.3319
lclavicle 1.04064e-013 -3.18055e-014
lhumerus -24.9028 14.4926 81.399
lradius 31.9188
lwrist -6.47215
lhand -20.1762 25.1626
lfingers 7.12502
lthumb 6.16975 55.0527
rfemur -23.7117 6.80998 27.3052
rtibia 29.9178
rfoot -1.24989 1.03509
rtoes 9.65748
lfemur -4.9219 -5.53961 -14.4232
ltibia 57.7843
lfoot 30.9853 -21.9261
ltoes 4.6049
65
root 10.3299 17.2361 -16.109 -0.848646 -4.19765 2.26011
lowerback 8.0727 -4.13179 -2.54862
upperback -0.103881 -5.58356 3.7623
thorax -4.00157 -2.69286 5.97334
lowerneck -15.1557 -2.28966 -9.10259
upperneck 21.8455 -1.74368 3.44209
head 9.5281 -1.19872 2.49276
rclavicle 1.55052e-014 -4.13472e-014
rhumerus -46.5448 -19.859 -68.3112
rradius 34.5616
rwrist 6.75416
rhand -10.0927 11.868
rfingers 7.12502
rthumb 15.8944 -17.4997
lclavicle 1.55052e-014 -4.13472e-014
lhumerus -24.7942 14.386 81.4481
lradius 31.5353
lwrist -6.28187
lhand -19.0157 26.5102
lfingers 7.12502
lthumb 7.28999 56.3646
rfemur -22.9711 6.91768 27.3118
rtibia 29.7344
rfoot -1.81209 1.46053
rtoes 10.4097
lfemur -6.8848 -5.47734 -14.7604
ltibia 59.9917
lfoot 26.8712 -20.7797
ltoes 2.19869
66
root 10.2744 17.2941 -15.8932 -0.733975 -5.09752 2.34747
lowerback 8.09099 -3.99927 -2.70844
upperback -0.0474105 -5.42724 3.65715
thorax -3.96664 -2.61478 5.93579
lowerneck -15.649 -2.43131 -8.77111
upperneck 22.0972 -2.02209 3.60314
head 9.72381 -1.28375 2.45988
rclavicle 9.74045e-015 -9.54166e-015
rhumerus -46.3589 -19.8235 -68.4076
rradius 35.6563
rwrist 6.53161
rhand -10.4653 12.2979
rfingers 7.12502
rthumb 15.5355 -17.098
lclavicle 9.74045e-015 -9.54166e-015
lhumerus -24.9 14.4499 81.3325
lradius 31.1239
lwrist -6.51571
lhand -18.1488 26.6067
lfingers 7.12502
lthumb 8.12676 56.4305
rfemur -22.043 7.1597 27.5733
rtibia 29.5013
rfoot -2.38798 1.88512
rtoes 10.6967
lfemur -8.97288 -5.1893 -14.8456
ltibia 61.9255
lfoot 22.6543 -19.2445
ltoes 2.26673
67
root 10.2191 17.3183 -15.673 -0.715878 -6.23079 2.40488
lowerback 7.98733 -3.87231 -2.93238
upperback -0.0353216 -5.27989 3.62764
thorax -3.89612 -2.54026 6.00654
lowerneck -15.5049 -2.44839 -8.81608
upperneck 22.2079 -2.12598 3.89699
head 9.74513 -1.30689 2.55927
rclavicle -5.6753e-014 1.27222e-014
rhumerus -46.2969 -19.3876 -68.4608
rradius 36.8832
rwrist 6.28163
rhand -9.9389 14.1089
rfingers 7.12502
rthumb 16.0425 -15.2469
lclavicle -5.6753e-014 1.27222e-014
lhumerus -25.308 14.5957 81.1979
lradius 30.6933
lwrist -6.46793
lhand -17.8307 27.4915
lfingers 7.12502
lthumb 8.4337 57.3031
rfemur -20.9961 7.51708 27.9038
rtibia 29.1842
rfoot -2.91862 2.39506
rtoes 11.0204
lfemur -10.6189 -4.6108 -14.8449
ltibia 63.5532
lfoot 20.5679 -18.601
ltoes 0.319838
68
root 10.1731 17.3193 -15.4571 -0.607859 -7.4038 2.3021
lowerback 7.70601 -3.77013 -2.88182
upperback 0.00463964 -5.13719 3.60815
thorax -3.7204 -2.47705 5.91711
lowerneck -15.2607 -2.46065 -8.83324
upperneck 22.2022 -2.21582 4.0991
head 9.7048 -1.3305 2.62235
rclavicle 7.90169e-014 -1.43125e-014
rhumerus -46.2215 -19.0939 -68.4589
rradius 38.154
rwrist 6.39201
rhand -8.88695 15.5673
rfingers 7.12502
rthumb 17.0553 -13.7041
lclavicle 7.90169e-014 -1.43125e-014
lhumerus -25.6595 14.9733 80.9992
lradius 30.107
lwrist -6.87909
lhand -17.298 28.5046
lfingers 7.12502
lthumb 8.9478 58.2948
rfemur -20.076 7.83203 28.3482
rtibia 28.7916
rfoot -3.43458 2.99774
rtoes 11.7616
lfemur -12.006 -3.89812 -14.6365
ltibia 64.9045
lfoot 17.821 -18.2667
ltoes -1.95331
69
root 10.1194 17.3368 -15.2427 -0.398728 -8.73176 1.99133
lowerback 7.54122 -3.6225 -2.71234
upperback -0.0534139 -4.92139 3.65727
thorax -3.7244 -2.37138 5.84348
lowerneck -15.0464 -2.49525 -8.7426
upperneck 22.2219 -2.34499 4.22987
head 9.67987 -1.37184 2.63741
rclavicle -2.89232e-014 3.33958e-014
rhumerus -46.1582 -18.7 -68.5311
rradius 39.1342
rwrist 6.21723
rhand -9.29912 15.1508
rfingers 7.12502
rthumb 16.6585 -14.1543
lclavicle -2.89232e-014 3.33958e-014
lhumerus -26.2872 15.2627 80.7553
lradius 29.7115
lwrist -7.39612
lhand -17.4974 26.8479
lfingers 7.12502
lthumb 8.7554 56.6463
rfemur -19.2102 8.30465 29.0324
rtibia 28.414
rfoot -3.8889 3.4827
rtoes 11.8585
lfemur -13.5295 -3.13407 -14.1699
ltibia 66.0304
lfoot 14.541 -17.4845
ltoes -8.25207
70
root 10.0681 17.3645 -15.0275 -0.380388 -9.85732 2.03309
lowerback 7.68877 -3.5631 -2.88484
upperback -0.18556 -4.85947 3.62541
thorax -3.94095 -2.3283 5.92162
lowerneck -14.6344 -2.48711 -8.727
upperneck 22.2011 -2.42053 4.38869
head 9.60101 -1.39357 2.682
rclavicle -5.05907e-014 7.95139e-015
rhumerus -46.125 -18.0293 -68.7193
rradius 40.0248
rwrist 5.34975
rhand -11.2291 13.5068
rfingers 7.12502
rthumb 14.7998 -15.9447
lclavicle -5.05907e-014 7.95139e-015
lhumerus -27.2327 15.5855 80.4708
lradius 29.6404
lwrist -7.66881
lhand -17.8964 23.3524
lfingers 7.12502
lthumb 8.37034 53.1666
rfemur -17.979 8.58465 29.296
rtibia 27.8904
rfoot -4.46537 3.96501
rtoes 11.6179
lfemur -15.0901 -2.65121 -14.2265
ltibia 66.8785
lfoot 11.6854 -15.3184
ltoes -7.6182
71
root 10.0171 17.3842 -14.8127 -0.35313 -10.9376 1.91712
lowerback 7.76289 -3.58906 -2.88574
upperback -0.319991 -4.89213 3.68231
thorax -4.11416 -2.33627 5.99924
lowerneck -14.0486 -2.40697 -8.98597
upperneck 22.291 -2.34861 4.55014
head 9.52236 -1.37452 2.79414
rclavicle 1.87852e-014 -3.18055e-014
rhumerus -46.0789 -17.2934 -68.752
rradius 40.9414
rwrist 5.26138
rhand -12.558 12.4943
rfingers 7.12502
rthumb 13.5192 -17.0469
lclavicle 1.87852e-014 -3.18055e-014
lhumerus -28.1348 16.2189 80.1223
lradius 29.4009
lwrist -8.30007
lhand -17.2833 26.9126
lfingers 7.12502
lthumb 8.96195 56.7022
rfemur -16.6402 9.02884 29.67
rtibia 27.2445
rfoot -5.03566 4.22726
rtoes 11.7537
lfemur -16.5826 -2.31038 -14.1304
ltibia 67.5393
lfoot 9.91529 -13.9191
ltoes -6.73374
72
root 9.96381 17.403 -14.6003 -0.213814 -12.1533 1.54379
lowerback 7.77976 -3.5665 -2.65978
upperback -0.474099 -4.8342 3.8275
thorax -4.29796 -2.30278 6.0302
lowerneck -13.3841 -2.33357 -9.36054
upperneck 22.3653 -2.286 4.77677
head 9.42605 -1.36377 2.94695
rclavicle 4.82053e-014 -1.11319e-014
rhumerus -45.9886 -16.577 -68.9524
rradius 42.001
rwrist 4.74246
rhand -13.1405 11.8616
rfingers 7.12502
rthumb 12.9577 -17.7161
lclavicle 4.82053e-014 -1.11319e-014
lhumerus -29.0486 16.569 79.8727
lradius 29.1023
lwrist -8.55992
lhand -16.4452 28.3002
lfingers 7.12502
lthumb 9.77066 58.0535
rfemur -15.5424 9.64702 30.3166
rtibia 26.815
rfoot -5.56462 4.46957
rtoes 12.5748
lfemur -18.002 -1.93255 -13.7022
ltibia 67.9719
lfoot 8.14611 -12.157
ltoes -6.39012
73
root 9.91282 17.4127 -14.397 -0.0586403 -13.2607 1.11573
lowerback 7.81536 -3.45975 -2.24244
upperback -0.346975 -4.65419 3.84352
thorax -4.23802 -2.22642 5.79007
lowerneck -13.6839 -2.3713 -9.36933
upperneck 22.4905 -2.37909 5.05607
head 9.53542 -1.37675 3.03648
rclavicle -4.00551e-014 3.02153e-014
rhumerus -45.513 -16.5219 -69.3602
rradius 43.0664
rwrist 4.04366
rhand -13.7092 11.141
rfingers 7.12502
rthumb 12.4095 -18.4706
lclavicle -4.00551e-014 3.02153e-014
lhumerus -29.2645 16.6499 79.6982
lradius 28.546
lwrist -9.3391
lhand -15.9025 27.5565
lfingers 7.12502
lthumb 10.2942 57.2846
rfemur -14.5911 10.123 31.0311
rtibia 26.5423
rfoot -6.16168 4.67459
rtoes 13.4884
lfemur -19.4736 -1.66358 -13.2205
ltibia 68.1904
lfoot 6.26677 -10.2916
ltoes -6.69038
74
root 9.86874 17.4225 -14.1882 0.142831 -14.2758 1.17066
lowerback 7.5657 -3.3205 -2.1121
upperback -0.0921089 -4.46685 3.65429
thorax -3.87766 -2.15161 5.46517
lowerneck -14.4648 -2.48559 -9.20979
upperneck 22.5574 -2.55107 5.26129
head 9.71924 -1.41101 3.05996
rclavicle 2.76311e-014 1.59028e-015
rhumerus -44.7502 -16.8075 -69.752
rradius 43.9716
rwrist 3.15485
rhand -14.613 10.6708
rfingers 7.12502
rthumb 11.5379 -18.9916
lclavicle 2.76311e-014 1.59028e-015
lhumerus -29.0761 16.3631 79.7293
lradius 27.9368
lwrist -10.214
lhand -16.3323 26.562
lfingers 7.12502
lthumb 9.87961 56.3102
rfemur -13.815 10.3472 31.1472
rtibia 26.2677
rfoot -6.91441 5.08201
rtoes 14.9867
lfemur -20.9601 -1.66821 -13.3698
ltibia 68.1552
lfoot 4.97571 -8.45992
ltoes -6.48782
75
root 9.82105 17.4289 -13.9761 0.339319 -15.4714 1.08787
lowerback 7.39654 -3.31863 -2.06091
upperback -0.205586 -4.4558 3.72157
thorax -3.90088 -2.14462 5.49888
lowerneck -14.0878 -2.36591 -9.42354
upperneck 22.5268 -2.35632 5.19998
head 9.62428 -1.35187 3.09888
rclavicle -5.60573e-014 5.48646e-014
rhumerus -44.508 -15.953 -69.9654
rradius 44.8844
rwrist 1.89279
rhand -14.8877 10.6404
rfingers 7.12502
rthumb 11.273 -19.0367
lclavicle -5.60573e-014 5.48646e-014
lhumerus -29.8265 16.5779 79.6147
lradius 27.5979
lwrist -10.306
lhand -16.3094 26.6737
lfingers 7.12502
lthumb 9.90165 56.4208
rfemur -12.9384 10.7238 31.426
rtibia 25.9418
rfoot -7.58038 5.40783
rtoes 14.4588
lfemur -22.3254 -1.52684 -13.3292
ltibia 68.0595
lfoot 3.2437 -6.43389
ltoes -2.12953
76
root 9.77118 17.4357 -13.761 0.521476 -16.9079 0.710948
lowerback 7.32725 -3.36924 -1.90299
upperback -0.389017 -4.49492 4.07185
thorax -4.03345 -2.15928 5.78713
lowerneck -13.4144 -2.09045 -10.1197
upperneck 22.5204 -1.8764 5.18569
head 9.46535 -1.20064 3.27027
rclavicle -3.68746e-014 -2.70347e-014
rhumerus -44.312 -14.314 -70.0659
rradius 45.8511
rwrist 0.706869
rhand -13.9181 11.289
rfingers 7.12502
rthumb 12.2081 -18.3347
lclavicle -3.68746e-014 -2.70347e-014
lhumerus -30.8706 17.4177 79.4967
lradius 27.5143
lwrist -9.81916
lhand -15.2708 28.1822
lfingers 7.12502
lthumb 10.9036 57.8791
rfemur -11.8624 11.4296 32.0346
rtibia 25.5073
rfoot -7.99512 5.60867
rtoes 13.8889
lfemur -23.672 -1.175 -12.9515
ltibia 67.9713
lfoot 1.62226 -4.91043
ltoes -6.34094
77
root 9.72731 17.4288 -13.5448 0.627356 -18.2413 0.339935
lowerback 7.50559 -3.28811 -1.59432
upperback -0.520532 -4.34866 4.2778
thorax -4.29439 -2.0828 5.83828
lowerneck -13.0593 -1.93895 -10.5343
upperneck 22.5595 -1.62652 5.24238
head 9.39631 -1.1205 3.39025
rclavicle -3.74709e-014 1.59028e-014
rhumerus -44.2424 -13.5053 -69.9943
rradius 46.6777
rwrist 0.279931
rhand -15.6923 9.35344
rfingers 7.12502
rthumb 10.4969 -20.3645
lclavicle -3.74709e-014 1.59028e-014
lhumerus -31.644 17.8083 79.4029
lradius 27.2815
lwrist -9.81709
lhand -14.8083 28.0051
lfingers 7.12502
lthumb 11.3496 57.678
rfemur -10.6461 11.7305 32.6656
rtibia 25.0128
rfoot -8.41887 5.80021
rtoes 12.766
lfemur -24.8372 -1.02921 -12.6166
ltibia 67.7103
lfoot -0.0477257 -3.41839
ltoes -8.83056
